<?xml version="1.0" encoding="UTF-8" standalone="no"?>
<svg
   xmlns:dc="http://purl.org/dc/elements/1.1/"
   xmlns:cc="http://creativecommons.org/ns#"
   xmlns:rdf="http://www.w3.org/1999/02/22-rdf-syntax-ns#"
   xmlns:svg="http://www.w3.org/2000/svg"
   xmlns="http://www.w3.org/2000/svg"
   xmlns:sodipodi="http://sodipodi.sourceforge.net/DTD/sodipodi-0.dtd"
   xmlns:inkscape="http://www.inkscape.org/namespaces/inkscape"
   sodipodi:docname="drawing.svg"
   inkscape:version="1.0 (4035a4fb49, 2020-05-01)"
   id="svg8"
   version="1.1"
   viewBox="0 0 35.451578 10.63621"
   height="40.199848"
   width="133.99022">
  <defs
     id="defs2" />
  <sodipodi:namedview
     fit-margin-bottom="0"
     fit-margin-right="0"
     fit-margin-left="0"
     fit-margin-top="0"
     units="px"
     showgrid="false"
     inkscape:document-rotation="0"
     inkscape:current-layer="layer1"
     inkscape:document-units="mm"
     inkscape:cy="77.334526"
     inkscape:cx="130.03575"
     inkscape:zoom="1.979899"
     inkscape:pageshadow="2"
     inkscape:pageopacity="0.0"
     borderopacity="1.0"
     bordercolor="#666666"
     pagecolor="#ffffff"
     id="base" />
  <metadata
     id="metadata5">
    <rdf:RDF>
      <cc:Work
         rdf:about="">
        <dc:format>image/svg+xml</dc:format>
        <dc:type
           rdf:resource="http://purl.org/dc/dcmitype/StillImage" />
        <dc:title></dc:title>
      </cc:Work>
    </rdf:RDF>
  </metadata>
  <g
     transform="translate(-71.428042,-127.70524)"
     id="layer1"
     inkscape:groupmode="layer"
     inkscape:label="Layer 1">
    <g
       style="font-weight:bold;font-size:10.5833px;line-height:1.25;font-family:Poppins;-inkscape-font-specification:'Poppins Bold';fill:#0066ff;fill-opacity:1;stroke-width:0.264583"
       id="text12"
       aria-label="Shorty">
      <path
         id="path837"
         style="fill:#0066ff;fill-opacity:1;stroke-width:0.264583"
         d="m 74.327866,135.61096 q -0.814914,0 -1.460495,-0.26458 -0.645582,-0.26458 -1.037164,-0.78316 -0.380998,-0.51858 -0.402165,-1.24883 h 1.926161 q 0.04233,0.41275 0.285749,0.635 0.243415,0.21166 0.634998,0.21166 0.402165,0 0.634998,-0.17991 0.232832,-0.1905 0.232832,-0.51859 0,-0.27516 -0.190499,-0.45508 -0.179916,-0.17991 -0.455082,-0.29633 -0.264583,-0.11642 -0.761998,-0.26458 -0.719664,-0.22225 -1.174746,-0.4445 -0.455082,-0.22225 -0.783164,-0.65617 -0.328082,-0.43391 -0.328082,-1.13241 0,-1.03716 0.751414,-1.61924 0.751414,-0.59267 1.95791,-0.59267 1.227663,0 1.979077,0.59267 0.751415,0.58208 0.804331,1.62982 h -1.95791 q -0.02117,-0.35983 -0.264583,-0.56091 -0.243416,-0.21167 -0.624415,-0.21167 -0.328082,0 -0.529164,0.17992 -0.201083,0.16933 -0.201083,0.49741 0,0.35984 0.338665,0.56092 0.338666,0.20108 1.05833,0.43391 0.719665,0.24342 1.164163,0.46567 0.455082,0.22225 0.783164,0.64558 0.328083,0.42333 0.328083,1.09008 0,0.635 -0.328083,1.15358 -0.317498,0.51858 -0.93133,0.8255 -0.613831,0.30691 -1.449912,0.30691 z" />
      <path
         id="path839"
         style="fill:#0066ff;fill-opacity:1;stroke-width:0.264583"
         d="m 81.78099,129.5679 q 1.015996,0 1.629828,0.67733 0.613831,0.66675 0.613831,1.84149 v 3.45016 h -1.799161 v -3.20674 q 0,-0.59266 -0.306915,-0.92075 -0.306916,-0.32808 -0.825498,-0.32808 -0.518581,0 -0.825497,0.32808 -0.306916,0.32809 -0.306916,0.92075 v 3.20674 h -1.809744 v -7.83164 h 1.809744 v 2.71991 q 0.275166,-0.39159 0.751414,-0.62442 0.476249,-0.23283 1.068914,-0.23283 z" />
      <path
         id="path841"
         style="fill:#0066ff;fill-opacity:1;stroke-width:0.264583"
         d="m 87.9704,135.62155 q -0.86783,0 -1.566328,-0.37042 -0.687914,-0.37041 -1.09008,-1.05833 -0.391582,-0.68791 -0.391582,-1.60866 0,-0.91016 0.402165,-1.59808 0.402166,-0.6985 1.100664,-1.06891 0.698497,-0.37042 1.566328,-0.37042 0.867831,0 1.566328,0.37042 0.698498,0.37041 1.100663,1.06891 0.402166,0.68792 0.402166,1.59808 0,0.91016 -0.412749,1.60866 -0.402165,0.68792 -1.111246,1.05833 -0.698498,0.37042 -1.566329,0.37042 z m 0,-1.56633 q 0.518582,0 0.878414,-0.381 0.370416,-0.381 0.370416,-1.09008 0,-0.70908 -0.359832,-1.09008 -0.349249,-0.381 -0.867831,-0.381 -0.529165,0 -0.878414,0.381 -0.349249,0.37042 -0.349249,1.09008 0,0.70908 0.338666,1.09008 0.349249,0.381 0.86783,0.381 z" />
      <path
         id="path843"
         style="fill:#0066ff;fill-opacity:1;stroke-width:0.264583"
         d="m 93.830573,130.61565 q 0.317499,-0.48684 0.793747,-0.762 0.476249,-0.28575 1.05833,-0.28575 v 1.91558 h -0.497415 q -0.677331,0 -1.015997,0.29633 -0.338665,0.28575 -0.338665,1.016 v 2.74107 h -1.809744 v -5.90548 h 1.809744 z" />
      <path
         id="path845"
         style="fill:#0066ff;fill-opacity:1;stroke-width:0.264583"
         d="m 99.839075,134.0023 v 1.53458 h -0.920747 q -0.984247,0 -1.534578,-0.47625 -0.550332,-0.48683 -0.550332,-1.57691 v -2.34949 h -0.719664 v -1.50283 h 0.719664 v -1.43933 h 1.809744 v 1.43933 h 1.18533 v 1.50283 h -1.18533 v 2.37066 q 0,0.26458 0.127,0.381 0.126999,0.11641 0.423332,0.11641 z" />
      <path
         id="path847"
         style="fill:#0066ff;fill-opacity:1;stroke-width:0.264583"
         d="m 106.87962,129.6314 -3.70416,8.71005 h -1.94733 l 1.35467,-3.00565 -2.40241,-5.7044 h 2.02141 l 1.36524,3.69357 1.35467,-3.69357 z" />
    </g>
  </g>
</svg>
